solid OpenSCAD_Model
  facet normal -1 0 0
    outer loop
      vertex 0 0 0
      vertex 0 6.5 2
      vertex 0 6.5 0
    endloop
  endfacet
  facet normal -1 -0 0
    outer loop
      vertex 0 6.5 2
      vertex 0 0 0
      vertex 0 0 2
    endloop
  endfacet
  facet normal -0 0 1
    outer loop
      vertex 0 6.5 2
      vertex 3.7 4 2
      vertex 3.7 6.5 2
    endloop
  endfacet
  facet normal 0 0 1
    outer loop
      vertex 3.7 4 2
      vertex 2.88033 2.18712 2
      vertex 2.9 2 2
    endloop
  endfacet
  facet normal 0 0 1
    outer loop
      vertex 3.7 4 2
      vertex 2.82219 2.36606 2
      vertex 2.88033 2.18712 2
    endloop
  endfacet
  facet normal 0 0 1
    outer loop
      vertex 3.7 4 2
      vertex 2.72812 2.52901 2
      vertex 2.82219 2.36606 2
    endloop
  endfacet
  facet normal 0 0 1
    outer loop
      vertex 3.7 4 2
      vertex 2.60222 2.66883 2
      vertex 2.72812 2.52901 2
    endloop
  endfacet
  facet normal 0 0 1
    outer loop
      vertex 3.7 4 2
      vertex 2.45 2.77942 2
      vertex 2.60222 2.66883 2
    endloop
  endfacet
  facet normal 0 0 1
    outer loop
      vertex 3.7 4 2
      vertex 2.27812 2.85595 2
      vertex 2.45 2.77942 2
    endloop
  endfacet
  facet normal 0 0 1
    outer loop
      vertex 3.7 4 2
      vertex 2.09408 2.89507 2
      vertex 2.27812 2.85595 2
    endloop
  endfacet
  facet normal 0 0 1
    outer loop
      vertex 3.7 4 2
      vertex 1.90592 2.89507 2
      vertex 2.09408 2.89507 2
    endloop
  endfacet
  facet normal 0 0 1
    outer loop
      vertex 3.7 4 2
      vertex 0 6.5 2
      vertex 1.90592 2.89507 2
    endloop
  endfacet
  facet normal 0 0 1
    outer loop
      vertex 1.90592 2.89507 2
      vertex 0 6.5 2
      vertex 1.72188 2.85595 2
    endloop
  endfacet
  facet normal 0 0 1
    outer loop
      vertex 1.72188 2.85595 2
      vertex 0 6.5 2
      vertex 1.55 2.77942 2
    endloop
  endfacet
  facet normal 0 0 1
    outer loop
      vertex 1.55 2.77942 2
      vertex 0 6.5 2
      vertex 1.39778 2.66883 2
    endloop
  endfacet
  facet normal 0 0 1
    outer loop
      vertex 0 0 2
      vertex 1.11967 2.18712 2
      vertex 0 6.5 2
    endloop
  endfacet
  facet normal 0 0 1
    outer loop
      vertex 1.17781 2.36606 2
      vertex 0 6.5 2
      vertex 1.11967 2.18712 2
    endloop
  endfacet
  facet normal 0 0 1
    outer loop
      vertex 1.27188 2.52901 2
      vertex 0 6.5 2
      vertex 1.17781 2.36606 2
    endloop
  endfacet
  facet normal 0 0 1
    outer loop
      vertex 1.39778 2.66883 2
      vertex 0 6.5 2
      vertex 1.27188 2.52901 2
    endloop
  endfacet
  facet normal -0 0 1
    outer loop
      vertex 11.8803 2.18712 2
      vertex 13 0 2
      vertex 13 6.5 2
    endloop
  endfacet
  facet normal 0 0 1
    outer loop
      vertex 13 0 2
      vertex 11.8803 2.18712 2
      vertex 11.9 2 2
    endloop
  endfacet
  facet normal 0 0 1
    outer loop
      vertex 13 6.5 2
      vertex 11.8222 2.36606 2
      vertex 11.8803 2.18712 2
    endloop
  endfacet
  facet normal 0 0 1
    outer loop
      vertex 13 6.5 2
      vertex 11.7281 2.52901 2
      vertex 11.8222 2.36606 2
    endloop
  endfacet
  facet normal 0 0 1
    outer loop
      vertex 13 6.5 2
      vertex 11.6022 2.66883 2
      vertex 11.7281 2.52901 2
    endloop
  endfacet
  facet normal 0 0 1
    outer loop
      vertex 13 6.5 2
      vertex 11.45 2.77942 2
      vertex 11.6022 2.66883 2
    endloop
  endfacet
  facet normal 0 0 1
    outer loop
      vertex 13 6.5 2
      vertex 11.2781 2.85595 2
      vertex 11.45 2.77942 2
    endloop
  endfacet
  facet normal 0 0 1
    outer loop
      vertex 13 6.5 2
      vertex 11.0941 2.89507 2
      vertex 11.2781 2.85595 2
    endloop
  endfacet
  facet normal -0 0 1
    outer loop
      vertex 9.3 4 2
      vertex 11.0941 2.89507 2
      vertex 13 6.5 2
    endloop
  endfacet
  facet normal 0 0 1
    outer loop
      vertex 11.0941 2.89507 2
      vertex 9.3 4 2
      vertex 10.9059 2.89507 2
    endloop
  endfacet
  facet normal 0 0 1
    outer loop
      vertex 10.9059 2.89507 2
      vertex 9.3 4 2
      vertex 10.7219 2.85595 2
    endloop
  endfacet
  facet normal 0 0 1
    outer loop
      vertex 10.7219 2.85595 2
      vertex 9.3 4 2
      vertex 10.55 2.77942 2
    endloop
  endfacet
  facet normal 0 0 1
    outer loop
      vertex 10.55 2.77942 2
      vertex 9.3 4 2
      vertex 10.3978 2.66883 2
    endloop
  endfacet
  facet normal 0 0 1
    outer loop
      vertex 10.1778 2.36606 2
      vertex 9.3 4 2
      vertex 10.1197 2.18712 2
    endloop
  endfacet
  facet normal 0 0 1
    outer loop
      vertex 10.2719 2.52901 2
      vertex 9.3 4 2
      vertex 10.1778 2.36606 2
    endloop
  endfacet
  facet normal 0 0 1
    outer loop
      vertex 10.3978 2.66883 2
      vertex 9.3 4 2
      vertex 10.2719 2.52901 2
    endloop
  endfacet
  facet normal 0 0 1
    outer loop
      vertex 9.3 4 2
      vertex 13 6.5 2
      vertex 9.3 6.5 2
    endloop
  endfacet
  facet normal -0 0 1
    outer loop
      vertex 11.8803 1.81288 2
      vertex 13 0 2
      vertex 11.9 2 2
    endloop
  endfacet
  facet normal -0 0 1
    outer loop
      vertex 11.8222 1.63394 2
      vertex 13 0 2
      vertex 11.8803 1.81288 2
    endloop
  endfacet
  facet normal -0 0 1
    outer loop
      vertex 11.7281 1.47099 2
      vertex 13 0 2
      vertex 11.8222 1.63394 2
    endloop
  endfacet
  facet normal -0 0 1
    outer loop
      vertex 11.6022 1.33117 2
      vertex 13 0 2
      vertex 11.7281 1.47099 2
    endloop
  endfacet
  facet normal -0 0 1
    outer loop
      vertex 11.45 1.22058 2
      vertex 13 0 2
      vertex 11.6022 1.33117 2
    endloop
  endfacet
  facet normal -0 0 1
    outer loop
      vertex 11.2781 1.14405 2
      vertex 13 0 2
      vertex 11.45 1.22058 2
    endloop
  endfacet
  facet normal -0 0 1
    outer loop
      vertex 11.0941 1.10493 2
      vertex 13 0 2
      vertex 11.2781 1.14405 2
    endloop
  endfacet
  facet normal -0 0 1
    outer loop
      vertex 10.9059 1.10493 2
      vertex 13 0 2
      vertex 11.0941 1.10493 2
    endloop
  endfacet
  facet normal 0 0 1
    outer loop
      vertex 10.7219 1.14405 2
      vertex 13 0 2
      vertex 10.9059 1.10493 2
    endloop
  endfacet
  facet normal 0 0 1
    outer loop
      vertex 2.27812 1.14405 2
      vertex 10.7219 1.14405 2
      vertex 10.55 1.22058 2
    endloop
  endfacet
  facet normal 0 0 1
    outer loop
      vertex 10.1197 2.18712 2
      vertex 9.3 4 2
      vertex 10.1 2 2
    endloop
  endfacet
  facet normal 0 0 1
    outer loop
      vertex 2.9 2 2
      vertex 10.1 2 2
      vertex 9.3 4 2
    endloop
  endfacet
  facet normal 0 0 1
    outer loop
      vertex 10.1 2 2
      vertex 2.9 2 2
      vertex 10.1197 1.81288 2
    endloop
  endfacet
  facet normal 0 0 1
    outer loop
      vertex 2.9 2 2
      vertex 9.3 4 2
      vertex 3.7 4 2
    endloop
  endfacet
  facet normal 0 0 1
    outer loop
      vertex 2.88033 1.81288 2
      vertex 10.1197 1.81288 2
      vertex 2.9 2 2
    endloop
  endfacet
  facet normal 0 0 1
    outer loop
      vertex 10.1197 1.81288 2
      vertex 2.88033 1.81288 2
      vertex 10.1778 1.63394 2
    endloop
  endfacet
  facet normal 0 0 1
    outer loop
      vertex 2.82219 1.63394 2
      vertex 10.1778 1.63394 2
      vertex 2.88033 1.81288 2
    endloop
  endfacet
  facet normal 0 0 1
    outer loop
      vertex 10.1778 1.63394 2
      vertex 2.82219 1.63394 2
      vertex 10.2719 1.47099 2
    endloop
  endfacet
  facet normal 0 0 1
    outer loop
      vertex 2.72812 1.47099 2
      vertex 10.2719 1.47099 2
      vertex 2.82219 1.63394 2
    endloop
  endfacet
  facet normal 0 0 1
    outer loop
      vertex 10.2719 1.47099 2
      vertex 2.72812 1.47099 2
      vertex 10.3978 1.33117 2
    endloop
  endfacet
  facet normal 0 0 1
    outer loop
      vertex 2.60222 1.33117 2
      vertex 10.3978 1.33117 2
      vertex 2.72812 1.47099 2
    endloop
  endfacet
  facet normal 0 0 1
    outer loop
      vertex 10.3978 1.33117 2
      vertex 2.60222 1.33117 2
      vertex 10.55 1.22058 2
    endloop
  endfacet
  facet normal 0 0 1
    outer loop
      vertex 2.45 1.22058 2
      vertex 10.55 1.22058 2
      vertex 2.60222 1.33117 2
    endloop
  endfacet
  facet normal 0 0 1
    outer loop
      vertex 2.27812 1.14405 2
      vertex 10.55 1.22058 2
      vertex 2.45 1.22058 2
    endloop
  endfacet
  facet normal 0 0 1
    outer loop
      vertex 10.7219 1.14405 2
      vertex 2.27812 1.14405 2
      vertex 13 0 2
    endloop
  endfacet
  facet normal 0 0 1
    outer loop
      vertex 0 0 2
      vertex 2.27812 1.14405 2
      vertex 2.09408 1.10493 2
    endloop
  endfacet
  facet normal 0 0 1
    outer loop
      vertex 0 0 2
      vertex 2.09408 1.10493 2
      vertex 1.90592 1.10493 2
    endloop
  endfacet
  facet normal 0 0 1
    outer loop
      vertex 1.11967 2.18712 2
      vertex 0 0 2
      vertex 1.1 2 2
    endloop
  endfacet
  facet normal 0 0 1
    outer loop
      vertex 2.27812 1.14405 2
      vertex 0 0 2
      vertex 13 0 2
    endloop
  endfacet
  facet normal 0 0 1
    outer loop
      vertex 1.72188 1.14405 2
      vertex 0 0 2
      vertex 1.90592 1.10493 2
    endloop
  endfacet
  facet normal 0 0 1
    outer loop
      vertex 1.55 1.22058 2
      vertex 0 0 2
      vertex 1.72188 1.14405 2
    endloop
  endfacet
  facet normal 0 0 1
    outer loop
      vertex 1.39778 1.33117 2
      vertex 0 0 2
      vertex 1.55 1.22058 2
    endloop
  endfacet
  facet normal 0 0 1
    outer loop
      vertex 1.27188 1.47099 2
      vertex 0 0 2
      vertex 1.39778 1.33117 2
    endloop
  endfacet
  facet normal 0 0 1
    outer loop
      vertex 1.17781 1.63394 2
      vertex 0 0 2
      vertex 1.27188 1.47099 2
    endloop
  endfacet
  facet normal 0 0 1
    outer loop
      vertex 1.11967 1.81288 2
      vertex 0 0 2
      vertex 1.17781 1.63394 2
    endloop
  endfacet
  facet normal 0 0 1
    outer loop
      vertex 1.1 2 2
      vertex 0 0 2
      vertex 1.11967 1.81288 2
    endloop
  endfacet
  facet normal 1 -0 0
    outer loop
      vertex 13 0 2
      vertex 13 6.5 0
      vertex 13 6.5 2
    endloop
  endfacet
  facet normal 1 0 0
    outer loop
      vertex 13 6.5 0
      vertex 13 0 2
      vertex 13 0 0
    endloop
  endfacet
  facet normal 0 0 -1
    outer loop
      vertex 13 0 0
      vertex 9.3 4 0
      vertex 13 6.5 0
    endloop
  endfacet
  facet normal 0 0 -1
    outer loop
      vertex 13 0 0
      vertex 3.7 4 0
      vertex 9.3 4 0
    endloop
  endfacet
  facet normal 0 0 -1
    outer loop
      vertex 0 0 0
      vertex 3.7 4 0
      vertex 13 0 0
    endloop
  endfacet
  facet normal 0 0 -1
    outer loop
      vertex 0 6.5 0
      vertex 3.7 4 0
      vertex 0 0 0
    endloop
  endfacet
  facet normal 0 0 -1
    outer loop
      vertex 3.7 4 0
      vertex 0 6.5 0
      vertex 3.7 6.5 0
    endloop
  endfacet
  facet normal -0 0 -1
    outer loop
      vertex 13 6.5 0
      vertex 9.3 4 0
      vertex 9.3 6.5 0
    endloop
  endfacet
  facet normal 0 -1 0
    outer loop
      vertex 0 0 0
      vertex 13 0 2
      vertex 0 0 2
    endloop
  endfacet
  facet normal 0 -1 -0
    outer loop
      vertex 13 0 2
      vertex 0 0 0
      vertex 13 0 0
    endloop
  endfacet
  facet normal 0 1 -0
    outer loop
      vertex 13 6.5 0
      vertex 9.3 6.5 2
      vertex 13 6.5 2
    endloop
  endfacet
  facet normal 0 1 0
    outer loop
      vertex 9.3 6.5 2
      vertex 13 6.5 0
      vertex 9.3 6.5 0
    endloop
  endfacet
  facet normal 0 1 -0
    outer loop
      vertex 3.7 6.5 0
      vertex 0 6.5 2
      vertex 3.7 6.5 2
    endloop
  endfacet
  facet normal 0 1 0
    outer loop
      vertex 0 6.5 2
      vertex 3.7 6.5 0
      vertex 0 6.5 0
    endloop
  endfacet
  facet normal 1 -0 0
    outer loop
      vertex 3.7 4 2
      vertex 3.7 6.5 0
      vertex 3.7 6.5 2
    endloop
  endfacet
  facet normal 1 0 0
    outer loop
      vertex 3.7 6.5 0
      vertex 3.7 4 2
      vertex 3.7 4 0
    endloop
  endfacet
  facet normal -1 0 0
    outer loop
      vertex 9.3 4 0
      vertex 9.3 6.5 2
      vertex 9.3 6.5 0
    endloop
  endfacet
  facet normal -1 -0 0
    outer loop
      vertex 9.3 6.5 2
      vertex 9.3 4 0
      vertex 9.3 4 2
    endloop
  endfacet
  facet normal 0 1 -0
    outer loop
      vertex 9.3 4 0
      vertex 3.7 4 2
      vertex 9.3 4 2
    endloop
  endfacet
  facet normal 0 1 0
    outer loop
      vertex 3.7 4 2
      vertex 9.3 4 0
      vertex 3.7 4 0
    endloop
  endfacet
  facet normal 0.994522 0.104531 0
    outer loop
      vertex 2.9 2 3.8
      vertex 2.88033 2.18712 2
      vertex 2.88033 2.18712 3.8
    endloop
  endfacet
  facet normal 0.994522 0.104531 0
    outer loop
      vertex 2.88033 2.18712 2
      vertex 2.9 2 3.8
      vertex 2.9 2 2
    endloop
  endfacet
  facet normal -0.207911 0.978148 0
    outer loop
      vertex 1.90592 2.89507 2
      vertex 1.72188 2.85595 3.8
      vertex 1.90592 2.89507 3.8
    endloop
  endfacet
  facet normal -0.207911 0.978148 0
    outer loop
      vertex 1.72188 2.85595 3.8
      vertex 1.90592 2.89507 2
      vertex 1.72188 2.85595 2
    endloop
  endfacet
  facet normal 0.207911 -0.978148 0
    outer loop
      vertex 2.09408 1.10493 2
      vertex 2.27812 1.14405 3.8
      vertex 2.09408 1.10493 3.8
    endloop
  endfacet
  facet normal 0.207911 -0.978148 0
    outer loop
      vertex 2.27812 1.14405 3.8
      vertex 2.09408 1.10493 2
      vertex 2.27812 1.14405 2
    endloop
  endfacet
  facet normal 0.406735 -0.913546 0
    outer loop
      vertex 2.27812 1.14405 2
      vertex 2.45 1.22058 3.8
      vertex 2.27812 1.14405 3.8
    endloop
  endfacet
  facet normal 0.406735 -0.913546 0
    outer loop
      vertex 2.45 1.22058 3.8
      vertex 2.27812 1.14405 2
      vertex 2.45 1.22058 2
    endloop
  endfacet
  facet normal 0.587788 0.809015 -0
    outer loop
      vertex 2.60222 2.66883 2
      vertex 2.45 2.77942 3.8
      vertex 2.60222 2.66883 3.8
    endloop
  endfacet
  facet normal 0.587788 0.809015 0
    outer loop
      vertex 2.45 2.77942 3.8
      vertex 2.60222 2.66883 2
      vertex 2.45 2.77942 2
    endloop
  endfacet
  facet normal -0.743144 0.669132 0
    outer loop
      vertex 1.27188 2.52901 2
      vertex 1.39778 2.66883 3.8
      vertex 1.39778 2.66883 2
    endloop
  endfacet
  facet normal -0.743144 0.669132 0
    outer loop
      vertex 1.39778 2.66883 3.8
      vertex 1.27188 2.52901 2
      vertex 1.27188 2.52901 3.8
    endloop
  endfacet
  facet normal -0.406735 0.913546 0
    outer loop
      vertex 1.72188 2.85595 2
      vertex 1.55 2.77942 3.8
      vertex 1.72188 2.85595 3.8
    endloop
  endfacet
  facet normal -0.406735 0.913546 0
    outer loop
      vertex 1.55 2.77942 3.8
      vertex 1.72188 2.85595 2
      vertex 1.55 2.77942 2
    endloop
  endfacet
  facet normal 0.866026 0.499998 0
    outer loop
      vertex 2.82219 2.36606 3.8
      vertex 2.72812 2.52901 2
      vertex 2.72812 2.52901 3.8
    endloop
  endfacet
  facet normal 0.866026 0.499998 0
    outer loop
      vertex 2.72812 2.52901 2
      vertex 2.82219 2.36606 3.8
      vertex 2.82219 2.36606 2
    endloop
  endfacet
  facet normal 0.951056 0.309017 0
    outer loop
      vertex 2.88033 2.18712 3.8
      vertex 2.82219 2.36606 2
      vertex 2.82219 2.36606 3.8
    endloop
  endfacet
  facet normal 0.951056 0.309017 0
    outer loop
      vertex 2.82219 2.36606 2
      vertex 2.88033 2.18712 3.8
      vertex 2.88033 2.18712 2
    endloop
  endfacet
  facet normal 0.743144 0.669132 0
    outer loop
      vertex 2.72812 2.52901 3.8
      vertex 2.60222 2.66883 2
      vertex 2.60222 2.66883 3.8
    endloop
  endfacet
  facet normal 0.743144 0.669132 0
    outer loop
      vertex 2.60222 2.66883 2
      vertex 2.72812 2.52901 3.8
      vertex 2.72812 2.52901 2
    endloop
  endfacet
  facet normal 0.207911 0.978148 -0
    outer loop
      vertex 2.27812 2.85595 2
      vertex 2.09408 2.89507 3.8
      vertex 2.27812 2.85595 3.8
    endloop
  endfacet
  facet normal 0.207911 0.978148 0
    outer loop
      vertex 2.09408 2.89507 3.8
      vertex 2.27812 2.85595 2
      vertex 2.09408 2.89507 2
    endloop
  endfacet
  facet normal 0 1 -0
    outer loop
      vertex 2.09408 2.89507 2
      vertex 1.90592 2.89507 3.8
      vertex 2.09408 2.89507 3.8
    endloop
  endfacet
  facet normal 0 1 0
    outer loop
      vertex 1.90592 2.89507 3.8
      vertex 2.09408 2.89507 2
      vertex 1.90592 2.89507 2
    endloop
  endfacet
  facet normal 0.406735 0.913546 -0
    outer loop
      vertex 2.45 2.77942 2
      vertex 2.27812 2.85595 3.8
      vertex 2.45 2.77942 3.8
    endloop
  endfacet
  facet normal 0.406735 0.913546 0
    outer loop
      vertex 2.27812 2.85595 3.8
      vertex 2.45 2.77942 2
      vertex 2.27812 2.85595 2
    endloop
  endfacet
  facet normal -0.951056 0.309017 0
    outer loop
      vertex 1.11967 2.18712 2
      vertex 1.17781 2.36606 3.8
      vertex 1.17781 2.36606 2
    endloop
  endfacet
  facet normal -0.951056 0.309017 0
    outer loop
      vertex 1.17781 2.36606 3.8
      vertex 1.11967 2.18712 2
      vertex 1.11967 2.18712 3.8
    endloop
  endfacet
  facet normal -0.866026 0.499998 0
    outer loop
      vertex 1.17781 2.36606 2
      vertex 1.27188 2.52901 3.8
      vertex 1.27188 2.52901 2
    endloop
  endfacet
  facet normal -0.866026 0.499998 0
    outer loop
      vertex 1.27188 2.52901 3.8
      vertex 1.17781 2.36606 2
      vertex 1.17781 2.36606 3.8
    endloop
  endfacet
  facet normal -0.994522 0.104531 0
    outer loop
      vertex 1.1 2 2
      vertex 1.11967 2.18712 3.8
      vertex 1.11967 2.18712 2
    endloop
  endfacet
  facet normal -0.994522 0.104531 0
    outer loop
      vertex 1.11967 2.18712 3.8
      vertex 1.1 2 2
      vertex 1.1 2 3.8
    endloop
  endfacet
  facet normal 0 0 1
    outer loop
      vertex 2.88033 2.18712 3.8
      vertex 2.88033 1.81288 3.8
      vertex 2.9 2 3.8
    endloop
  endfacet
  facet normal 0 0 1
    outer loop
      vertex 2.82219 2.36606 3.8
      vertex 2.88033 1.81288 3.8
      vertex 2.88033 2.18712 3.8
    endloop
  endfacet
  facet normal 0 0 1
    outer loop
      vertex 2.82219 2.36606 3.8
      vertex 2.82219 1.63394 3.8
      vertex 2.88033 1.81288 3.8
    endloop
  endfacet
  facet normal 0 0 1
    outer loop
      vertex 2.72812 2.52901 3.8
      vertex 2.82219 1.63394 3.8
      vertex 2.82219 2.36606 3.8
    endloop
  endfacet
  facet normal 0 0 1
    outer loop
      vertex 2.72812 2.52901 3.8
      vertex 2.72812 1.47099 3.8
      vertex 2.82219 1.63394 3.8
    endloop
  endfacet
  facet normal 0 0 1
    outer loop
      vertex 2.60222 2.66883 3.8
      vertex 2.72812 1.47099 3.8
      vertex 2.72812 2.52901 3.8
    endloop
  endfacet
  facet normal 0 0 1
    outer loop
      vertex 2.60222 2.66883 3.8
      vertex 2.60222 1.33117 3.8
      vertex 2.72812 1.47099 3.8
    endloop
  endfacet
  facet normal 0 0 1
    outer loop
      vertex 2.45 2.77942 3.8
      vertex 2.60222 1.33117 3.8
      vertex 2.60222 2.66883 3.8
    endloop
  endfacet
  facet normal 0 0 1
    outer loop
      vertex 2.45 2.77942 3.8
      vertex 2.45 1.22058 3.8
      vertex 2.60222 1.33117 3.8
    endloop
  endfacet
  facet normal 0 0 1
    outer loop
      vertex 2.27812 2.85595 3.8
      vertex 2.45 1.22058 3.8
      vertex 2.45 2.77942 3.8
    endloop
  endfacet
  facet normal 0 0 1
    outer loop
      vertex 2.27812 2.85595 3.8
      vertex 2.27812 1.14405 3.8
      vertex 2.45 1.22058 3.8
    endloop
  endfacet
  facet normal 0 0 1
    outer loop
      vertex 2.09408 2.89507 3.8
      vertex 2.27812 1.14405 3.8
      vertex 2.27812 2.85595 3.8
    endloop
  endfacet
  facet normal 0 0 1
    outer loop
      vertex 2.09408 2.89507 3.8
      vertex 2.09408 1.10493 3.8
      vertex 2.27812 1.14405 3.8
    endloop
  endfacet
  facet normal -0 0 1
    outer loop
      vertex 1.90592 2.89507 3.8
      vertex 2.09408 1.10493 3.8
      vertex 2.09408 2.89507 3.8
    endloop
  endfacet
  facet normal 0 0 1
    outer loop
      vertex 1.90592 2.89507 3.8
      vertex 1.90592 1.10493 3.8
      vertex 2.09408 1.10493 3.8
    endloop
  endfacet
  facet normal -0 0 1
    outer loop
      vertex 1.72188 2.85595 3.8
      vertex 1.90592 1.10493 3.8
      vertex 1.90592 2.89507 3.8
    endloop
  endfacet
  facet normal 0 0 1
    outer loop
      vertex 1.72188 2.85595 3.8
      vertex 1.72188 1.14405 3.8
      vertex 1.90592 1.10493 3.8
    endloop
  endfacet
  facet normal -0 0 1
    outer loop
      vertex 1.55 2.77942 3.8
      vertex 1.72188 1.14405 3.8
      vertex 1.72188 2.85595 3.8
    endloop
  endfacet
  facet normal 0 0 1
    outer loop
      vertex 1.55 2.77942 3.8
      vertex 1.55 1.22058 3.8
      vertex 1.72188 1.14405 3.8
    endloop
  endfacet
  facet normal -0 0 1
    outer loop
      vertex 1.39778 2.66883 3.8
      vertex 1.55 1.22058 3.8
      vertex 1.55 2.77942 3.8
    endloop
  endfacet
  facet normal 0 0 1
    outer loop
      vertex 1.39778 2.66883 3.8
      vertex 1.39778 1.33117 3.8
      vertex 1.55 1.22058 3.8
    endloop
  endfacet
  facet normal -0 0 1
    outer loop
      vertex 1.27188 2.52901 3.8
      vertex 1.39778 1.33117 3.8
      vertex 1.39778 2.66883 3.8
    endloop
  endfacet
  facet normal 0 0 1
    outer loop
      vertex 1.27188 2.52901 3.8
      vertex 1.27188 1.47099 3.8
      vertex 1.39778 1.33117 3.8
    endloop
  endfacet
  facet normal -0 0 1
    outer loop
      vertex 1.17781 2.36606 3.8
      vertex 1.27188 1.47099 3.8
      vertex 1.27188 2.52901 3.8
    endloop
  endfacet
  facet normal 0 0 1
    outer loop
      vertex 1.17781 2.36606 3.8
      vertex 1.17781 1.63394 3.8
      vertex 1.27188 1.47099 3.8
    endloop
  endfacet
  facet normal -0 0 1
    outer loop
      vertex 1.11967 2.18712 3.8
      vertex 1.17781 1.63394 3.8
      vertex 1.17781 2.36606 3.8
    endloop
  endfacet
  facet normal 0 0 1
    outer loop
      vertex 1.11967 2.18712 3.8
      vertex 1.11967 1.81288 3.8
      vertex 1.17781 1.63394 3.8
    endloop
  endfacet
  facet normal 0 -0 1
    outer loop
      vertex 1.11967 1.81288 3.8
      vertex 1.11967 2.18712 3.8
      vertex 1.1 2 3.8
    endloop
  endfacet
  facet normal -0.587788 0.809015 0
    outer loop
      vertex 1.55 2.77942 2
      vertex 1.39778 2.66883 3.8
      vertex 1.55 2.77942 3.8
    endloop
  endfacet
  facet normal -0.587788 0.809015 0
    outer loop
      vertex 1.39778 2.66883 3.8
      vertex 1.55 2.77942 2
      vertex 1.39778 2.66883 2
    endloop
  endfacet
  facet normal 0.994522 -0.10453 0
    outer loop
      vertex 2.88033 1.81288 3.8
      vertex 2.9 2 2
      vertex 2.9 2 3.8
    endloop
  endfacet
  facet normal 0.994522 -0.10453 0
    outer loop
      vertex 2.9 2 2
      vertex 2.88033 1.81288 3.8
      vertex 2.88033 1.81288 2
    endloop
  endfacet
  facet normal 0.743144 -0.669132 0
    outer loop
      vertex 2.60222 1.33117 3.8
      vertex 2.72812 1.47099 2
      vertex 2.72812 1.47099 3.8
    endloop
  endfacet
  facet normal 0.743144 -0.669132 0
    outer loop
      vertex 2.72812 1.47099 2
      vertex 2.60222 1.33117 3.8
      vertex 2.60222 1.33117 2
    endloop
  endfacet
  facet normal -0.994522 -0.10453 0
    outer loop
      vertex 1.11967 1.81288 2
      vertex 1.1 2 3.8
      vertex 1.1 2 2
    endloop
  endfacet
  facet normal -0.994522 -0.10453 0
    outer loop
      vertex 1.1 2 3.8
      vertex 1.11967 1.81288 2
      vertex 1.11967 1.81288 3.8
    endloop
  endfacet
  facet normal 0.866026 -0.499998 0
    outer loop
      vertex 2.72812 1.47099 3.8
      vertex 2.82219 1.63394 2
      vertex 2.82219 1.63394 3.8
    endloop
  endfacet
  facet normal 0.866026 -0.499998 0
    outer loop
      vertex 2.82219 1.63394 2
      vertex 2.72812 1.47099 3.8
      vertex 2.72812 1.47099 2
    endloop
  endfacet
  facet normal -0.207911 -0.978148 0
    outer loop
      vertex 1.72188 1.14405 2
      vertex 1.90592 1.10493 3.8
      vertex 1.72188 1.14405 3.8
    endloop
  endfacet
  facet normal -0.207911 -0.978148 -0
    outer loop
      vertex 1.90592 1.10493 3.8
      vertex 1.72188 1.14405 2
      vertex 1.90592 1.10493 2
    endloop
  endfacet
  facet normal -0.743144 -0.669132 0
    outer loop
      vertex 1.39778 1.33117 2
      vertex 1.27188 1.47099 3.8
      vertex 1.27188 1.47099 2
    endloop
  endfacet
  facet normal -0.743144 -0.669132 0
    outer loop
      vertex 1.27188 1.47099 3.8
      vertex 1.39778 1.33117 2
      vertex 1.39778 1.33117 3.8
    endloop
  endfacet
  facet normal 0.587788 -0.809015 0
    outer loop
      vertex 2.45 1.22058 2
      vertex 2.60222 1.33117 3.8
      vertex 2.45 1.22058 3.8
    endloop
  endfacet
  facet normal 0.587788 -0.809015 0
    outer loop
      vertex 2.60222 1.33117 3.8
      vertex 2.45 1.22058 2
      vertex 2.60222 1.33117 2
    endloop
  endfacet
  facet normal 0.951056 -0.309017 0
    outer loop
      vertex 2.82219 1.63394 3.8
      vertex 2.88033 1.81288 2
      vertex 2.88033 1.81288 3.8
    endloop
  endfacet
  facet normal 0.951056 -0.309017 0
    outer loop
      vertex 2.88033 1.81288 2
      vertex 2.82219 1.63394 3.8
      vertex 2.82219 1.63394 2
    endloop
  endfacet
  facet normal 0 -1 0
    outer loop
      vertex 1.90592 1.10493 2
      vertex 2.09408 1.10493 3.8
      vertex 1.90592 1.10493 3.8
    endloop
  endfacet
  facet normal 0 -1 -0
    outer loop
      vertex 2.09408 1.10493 3.8
      vertex 1.90592 1.10493 2
      vertex 2.09408 1.10493 2
    endloop
  endfacet
  facet normal -0.406735 -0.913546 0
    outer loop
      vertex 1.55 1.22058 2
      vertex 1.72188 1.14405 3.8
      vertex 1.55 1.22058 3.8
    endloop
  endfacet
  facet normal -0.406735 -0.913546 -0
    outer loop
      vertex 1.72188 1.14405 3.8
      vertex 1.55 1.22058 2
      vertex 1.72188 1.14405 2
    endloop
  endfacet
  facet normal -0.587788 -0.809015 0
    outer loop
      vertex 1.39778 1.33117 2
      vertex 1.55 1.22058 3.8
      vertex 1.39778 1.33117 3.8
    endloop
  endfacet
  facet normal -0.587788 -0.809015 -0
    outer loop
      vertex 1.55 1.22058 3.8
      vertex 1.39778 1.33117 2
      vertex 1.55 1.22058 2
    endloop
  endfacet
  facet normal -0.866026 -0.499998 0
    outer loop
      vertex 1.27188 1.47099 2
      vertex 1.17781 1.63394 3.8
      vertex 1.17781 1.63394 2
    endloop
  endfacet
  facet normal -0.866026 -0.499998 0
    outer loop
      vertex 1.17781 1.63394 3.8
      vertex 1.27188 1.47099 2
      vertex 1.27188 1.47099 3.8
    endloop
  endfacet
  facet normal -0.951056 -0.309017 0
    outer loop
      vertex 1.17781 1.63394 2
      vertex 1.11967 1.81288 3.8
      vertex 1.11967 1.81288 2
    endloop
  endfacet
  facet normal -0.951056 -0.309017 0
    outer loop
      vertex 1.11967 1.81288 3.8
      vertex 1.17781 1.63394 2
      vertex 1.17781 1.63394 3.8
    endloop
  endfacet
  facet normal 0.866026 0.499998 0
    outer loop
      vertex 11.8222 2.36606 3.8
      vertex 11.7281 2.52901 2
      vertex 11.7281 2.52901 3.8
    endloop
  endfacet
  facet normal 0.866026 0.499998 0
    outer loop
      vertex 11.7281 2.52901 2
      vertex 11.8222 2.36606 3.8
      vertex 11.8222 2.36606 2
    endloop
  endfacet
  facet normal 0.743144 0.669132 0
    outer loop
      vertex 11.7281 2.52901 3.8
      vertex 11.6022 2.66883 2
      vertex 11.6022 2.66883 3.8
    endloop
  endfacet
  facet normal 0.743144 0.669132 0
    outer loop
      vertex 11.6022 2.66883 2
      vertex 11.7281 2.52901 3.8
      vertex 11.7281 2.52901 2
    endloop
  endfacet
  facet normal 0 1 -0
    outer loop
      vertex 11.0941 2.89507 2
      vertex 10.9059 2.89507 3.8
      vertex 11.0941 2.89507 3.8
    endloop
  endfacet
  facet normal 0 1 0
    outer loop
      vertex 10.9059 2.89507 3.8
      vertex 11.0941 2.89507 2
      vertex 10.9059 2.89507 2
    endloop
  endfacet
  facet normal 0.207911 0.978148 -0
    outer loop
      vertex 11.2781 2.85595 2
      vertex 11.0941 2.89507 3.8
      vertex 11.2781 2.85595 3.8
    endloop
  endfacet
  facet normal 0.207911 0.978148 0
    outer loop
      vertex 11.0941 2.89507 3.8
      vertex 11.2781 2.85595 2
      vertex 11.0941 2.89507 2
    endloop
  endfacet
  facet normal -0.406735 0.913546 0
    outer loop
      vertex 10.7219 2.85595 2
      vertex 10.55 2.77942 3.8
      vertex 10.7219 2.85595 3.8
    endloop
  endfacet
  facet normal -0.406735 0.913546 0
    outer loop
      vertex 10.55 2.77942 3.8
      vertex 10.7219 2.85595 2
      vertex 10.55 2.77942 2
    endloop
  endfacet
  facet normal -0.951056 0.309017 0
    outer loop
      vertex 10.1197 2.18712 2
      vertex 10.1778 2.36606 3.8
      vertex 10.1778 2.36606 2
    endloop
  endfacet
  facet normal -0.951056 0.309017 0
    outer loop
      vertex 10.1778 2.36606 3.8
      vertex 10.1197 2.18712 2
      vertex 10.1197 2.18712 3.8
    endloop
  endfacet
  facet normal 0.994522 -0.10453 0
    outer loop
      vertex 11.8803 1.81288 3.8
      vertex 11.9 2 2
      vertex 11.9 2 3.8
    endloop
  endfacet
  facet normal 0.994522 -0.10453 0
    outer loop
      vertex 11.9 2 2
      vertex 11.8803 1.81288 3.8
      vertex 11.8803 1.81288 2
    endloop
  endfacet
  facet normal 0.951056 0.309017 0
    outer loop
      vertex 11.8803 2.18712 3.8
      vertex 11.8222 2.36606 2
      vertex 11.8222 2.36606 3.8
    endloop
  endfacet
  facet normal 0.951056 0.309017 0
    outer loop
      vertex 11.8222 2.36606 2
      vertex 11.8803 2.18712 3.8
      vertex 11.8803 2.18712 2
    endloop
  endfacet
  facet normal 0.587788 0.809015 -0
    outer loop
      vertex 11.6022 2.66883 2
      vertex 11.45 2.77942 3.8
      vertex 11.6022 2.66883 3.8
    endloop
  endfacet
  facet normal 0.587788 0.809015 0
    outer loop
      vertex 11.45 2.77942 3.8
      vertex 11.6022 2.66883 2
      vertex 11.45 2.77942 2
    endloop
  endfacet
  facet normal -0.207911 0.978148 0
    outer loop
      vertex 10.9059 2.89507 2
      vertex 10.7219 2.85595 3.8
      vertex 10.9059 2.89507 3.8
    endloop
  endfacet
  facet normal -0.207911 0.978148 0
    outer loop
      vertex 10.7219 2.85595 3.8
      vertex 10.9059 2.89507 2
      vertex 10.7219 2.85595 2
    endloop
  endfacet
  facet normal 0.406735 0.913546 -0
    outer loop
      vertex 11.45 2.77942 2
      vertex 11.2781 2.85595 3.8
      vertex 11.45 2.77942 3.8
    endloop
  endfacet
  facet normal 0.406735 0.913546 0
    outer loop
      vertex 11.2781 2.85595 3.8
      vertex 11.45 2.77942 2
      vertex 11.2781 2.85595 2
    endloop
  endfacet
  facet normal -0.994522 -0.10453 0
    outer loop
      vertex 10.1197 1.81288 2
      vertex 10.1 2 3.8
      vertex 10.1 2 2
    endloop
  endfacet
  facet normal -0.994522 -0.10453 0
    outer loop
      vertex 10.1 2 3.8
      vertex 10.1197 1.81288 2
      vertex 10.1197 1.81288 3.8
    endloop
  endfacet
  facet normal -0.866026 0.499998 0
    outer loop
      vertex 10.1778 2.36606 2
      vertex 10.2719 2.52901 3.8
      vertex 10.2719 2.52901 2
    endloop
  endfacet
  facet normal -0.866026 0.499998 0
    outer loop
      vertex 10.2719 2.52901 3.8
      vertex 10.1778 2.36606 2
      vertex 10.1778 2.36606 3.8
    endloop
  endfacet
  facet normal -0.587788 0.809015 0
    outer loop
      vertex 10.55 2.77942 2
      vertex 10.3978 2.66883 3.8
      vertex 10.55 2.77942 3.8
    endloop
  endfacet
  facet normal -0.587788 0.809015 0
    outer loop
      vertex 10.3978 2.66883 3.8
      vertex 10.55 2.77942 2
      vertex 10.3978 2.66883 2
    endloop
  endfacet
  facet normal -0.743144 0.669132 0
    outer loop
      vertex 10.2719 2.52901 2
      vertex 10.3978 2.66883 3.8
      vertex 10.3978 2.66883 2
    endloop
  endfacet
  facet normal -0.743144 0.669132 0
    outer loop
      vertex 10.3978 2.66883 3.8
      vertex 10.2719 2.52901 2
      vertex 10.2719 2.52901 3.8
    endloop
  endfacet
  facet normal 0.994522 0.104531 0
    outer loop
      vertex 11.9 2 3.8
      vertex 11.8803 2.18712 2
      vertex 11.8803 2.18712 3.8
    endloop
  endfacet
  facet normal 0.994522 0.104531 0
    outer loop
      vertex 11.8803 2.18712 2
      vertex 11.9 2 3.8
      vertex 11.9 2 2
    endloop
  endfacet
  facet normal 0.587788 -0.809015 0
    outer loop
      vertex 11.45 1.22058 2
      vertex 11.6022 1.33117 3.8
      vertex 11.45 1.22058 3.8
    endloop
  endfacet
  facet normal 0.587788 -0.809015 0
    outer loop
      vertex 11.6022 1.33117 3.8
      vertex 11.45 1.22058 2
      vertex 11.6022 1.33117 2
    endloop
  endfacet
  facet normal 0.866026 -0.499998 0
    outer loop
      vertex 11.7281 1.47099 3.8
      vertex 11.8222 1.63394 2
      vertex 11.8222 1.63394 3.8
    endloop
  endfacet
  facet normal 0.866026 -0.499998 0
    outer loop
      vertex 11.8222 1.63394 2
      vertex 11.7281 1.47099 3.8
      vertex 11.7281 1.47099 2
    endloop
  endfacet
  facet normal 0.406735 -0.913546 0
    outer loop
      vertex 11.2781 1.14405 2
      vertex 11.45 1.22058 3.8
      vertex 11.2781 1.14405 3.8
    endloop
  endfacet
  facet normal 0.406735 -0.913546 0
    outer loop
      vertex 11.45 1.22058 3.8
      vertex 11.2781 1.14405 2
      vertex 11.45 1.22058 2
    endloop
  endfacet
  facet normal 0 0 1
    outer loop
      vertex 11.8803 2.18712 3.8
      vertex 11.8803 1.81288 3.8
      vertex 11.9 2 3.8
    endloop
  endfacet
  facet normal 0 0 1
    outer loop
      vertex 11.8222 2.36606 3.8
      vertex 11.8803 1.81288 3.8
      vertex 11.8803 2.18712 3.8
    endloop
  endfacet
  facet normal 0 0 1
    outer loop
      vertex 11.8222 2.36606 3.8
      vertex 11.8222 1.63394 3.8
      vertex 11.8803 1.81288 3.8
    endloop
  endfacet
  facet normal 0 0 1
    outer loop
      vertex 11.7281 2.52901 3.8
      vertex 11.8222 1.63394 3.8
      vertex 11.8222 2.36606 3.8
    endloop
  endfacet
  facet normal 0 0 1
    outer loop
      vertex 11.7281 2.52901 3.8
      vertex 11.7281 1.47099 3.8
      vertex 11.8222 1.63394 3.8
    endloop
  endfacet
  facet normal 0 0 1
    outer loop
      vertex 11.6022 2.66883 3.8
      vertex 11.7281 1.47099 3.8
      vertex 11.7281 2.52901 3.8
    endloop
  endfacet
  facet normal 0 0 1
    outer loop
      vertex 11.6022 2.66883 3.8
      vertex 11.6022 1.33117 3.8
      vertex 11.7281 1.47099 3.8
    endloop
  endfacet
  facet normal 0 0 1
    outer loop
      vertex 11.45 2.77942 3.8
      vertex 11.6022 1.33117 3.8
      vertex 11.6022 2.66883 3.8
    endloop
  endfacet
  facet normal 0 0 1
    outer loop
      vertex 11.45 2.77942 3.8
      vertex 11.45 1.22058 3.8
      vertex 11.6022 1.33117 3.8
    endloop
  endfacet
  facet normal 0 0 1
    outer loop
      vertex 11.2781 2.85595 3.8
      vertex 11.45 1.22058 3.8
      vertex 11.45 2.77942 3.8
    endloop
  endfacet
  facet normal 0 0 1
    outer loop
      vertex 11.2781 2.85595 3.8
      vertex 11.2781 1.14405 3.8
      vertex 11.45 1.22058 3.8
    endloop
  endfacet
  facet normal 0 0 1
    outer loop
      vertex 11.0941 2.89507 3.8
      vertex 11.2781 1.14405 3.8
      vertex 11.2781 2.85595 3.8
    endloop
  endfacet
  facet normal 0 0 1
    outer loop
      vertex 11.0941 2.89507 3.8
      vertex 11.0941 1.10493 3.8
      vertex 11.2781 1.14405 3.8
    endloop
  endfacet
  facet normal -0 0 1
    outer loop
      vertex 10.9059 2.89507 3.8
      vertex 11.0941 1.10493 3.8
      vertex 11.0941 2.89507 3.8
    endloop
  endfacet
  facet normal 0 0 1
    outer loop
      vertex 10.9059 2.89507 3.8
      vertex 10.9059 1.10493 3.8
      vertex 11.0941 1.10493 3.8
    endloop
  endfacet
  facet normal -0 0 1
    outer loop
      vertex 10.7219 2.85595 3.8
      vertex 10.9059 1.10493 3.8
      vertex 10.9059 2.89507 3.8
    endloop
  endfacet
  facet normal 0 0 1
    outer loop
      vertex 10.7219 2.85595 3.8
      vertex 10.7219 1.14405 3.8
      vertex 10.9059 1.10493 3.8
    endloop
  endfacet
  facet normal -0 0 1
    outer loop
      vertex 10.55 2.77942 3.8
      vertex 10.7219 1.14405 3.8
      vertex 10.7219 2.85595 3.8
    endloop
  endfacet
  facet normal 0 0 1
    outer loop
      vertex 10.55 2.77942 3.8
      vertex 10.55 1.22058 3.8
      vertex 10.7219 1.14405 3.8
    endloop
  endfacet
  facet normal -0 0 1
    outer loop
      vertex 10.3978 2.66883 3.8
      vertex 10.55 1.22058 3.8
      vertex 10.55 2.77942 3.8
    endloop
  endfacet
  facet normal 0 0 1
    outer loop
      vertex 10.3978 2.66883 3.8
      vertex 10.3978 1.33117 3.8
      vertex 10.55 1.22058 3.8
    endloop
  endfacet
  facet normal -0 0 1
    outer loop
      vertex 10.2719 2.52901 3.8
      vertex 10.3978 1.33117 3.8
      vertex 10.3978 2.66883 3.8
    endloop
  endfacet
  facet normal 0 0 1
    outer loop
      vertex 10.2719 2.52901 3.8
      vertex 10.2719 1.47099 3.8
      vertex 10.3978 1.33117 3.8
    endloop
  endfacet
  facet normal -0 0 1
    outer loop
      vertex 10.1778 2.36606 3.8
      vertex 10.2719 1.47099 3.8
      vertex 10.2719 2.52901 3.8
    endloop
  endfacet
  facet normal 0 0 1
    outer loop
      vertex 10.1778 2.36606 3.8
      vertex 10.1778 1.63394 3.8
      vertex 10.2719 1.47099 3.8
    endloop
  endfacet
  facet normal -0 0 1
    outer loop
      vertex 10.1197 2.18712 3.8
      vertex 10.1778 1.63394 3.8
      vertex 10.1778 2.36606 3.8
    endloop
  endfacet
  facet normal 0 0 1
    outer loop
      vertex 10.1197 2.18712 3.8
      vertex 10.1197 1.81288 3.8
      vertex 10.1778 1.63394 3.8
    endloop
  endfacet
  facet normal 0 -0 1
    outer loop
      vertex 10.1197 1.81288 3.8
      vertex 10.1197 2.18712 3.8
      vertex 10.1 2 3.8
    endloop
  endfacet
  facet normal -0.994522 0.104531 0
    outer loop
      vertex 10.1 2 2
      vertex 10.1197 2.18712 3.8
      vertex 10.1197 2.18712 2
    endloop
  endfacet
  facet normal -0.994522 0.104531 0
    outer loop
      vertex 10.1197 2.18712 3.8
      vertex 10.1 2 2
      vertex 10.1 2 3.8
    endloop
  endfacet
  facet normal 0 -1 0
    outer loop
      vertex 10.9059 1.10493 2
      vertex 11.0941 1.10493 3.8
      vertex 10.9059 1.10493 3.8
    endloop
  endfacet
  facet normal 0 -1 -0
    outer loop
      vertex 11.0941 1.10493 3.8
      vertex 10.9059 1.10493 2
      vertex 11.0941 1.10493 2
    endloop
  endfacet
  facet normal -0.951056 -0.309017 0
    outer loop
      vertex 10.1778 1.63394 2
      vertex 10.1197 1.81288 3.8
      vertex 10.1197 1.81288 2
    endloop
  endfacet
  facet normal -0.951056 -0.309017 0
    outer loop
      vertex 10.1197 1.81288 3.8
      vertex 10.1778 1.63394 2
      vertex 10.1778 1.63394 3.8
    endloop
  endfacet
  facet normal 0.951056 -0.309017 0
    outer loop
      vertex 11.8222 1.63394 3.8
      vertex 11.8803 1.81288 2
      vertex 11.8803 1.81288 3.8
    endloop
  endfacet
  facet normal 0.951056 -0.309017 0
    outer loop
      vertex 11.8803 1.81288 2
      vertex 11.8222 1.63394 3.8
      vertex 11.8222 1.63394 2
    endloop
  endfacet
  facet normal -0.406735 -0.913546 0
    outer loop
      vertex 10.55 1.22058 2
      vertex 10.7219 1.14405 3.8
      vertex 10.55 1.22058 3.8
    endloop
  endfacet
  facet normal -0.406735 -0.913546 -0
    outer loop
      vertex 10.7219 1.14405 3.8
      vertex 10.55 1.22058 2
      vertex 10.7219 1.14405 2
    endloop
  endfacet
  facet normal 0.207911 -0.978148 0
    outer loop
      vertex 11.0941 1.10493 2
      vertex 11.2781 1.14405 3.8
      vertex 11.0941 1.10493 3.8
    endloop
  endfacet
  facet normal 0.207911 -0.978148 0
    outer loop
      vertex 11.2781 1.14405 3.8
      vertex 11.0941 1.10493 2
      vertex 11.2781 1.14405 2
    endloop
  endfacet
  facet normal -0.207911 -0.978148 0
    outer loop
      vertex 10.7219 1.14405 2
      vertex 10.9059 1.10493 3.8
      vertex 10.7219 1.14405 3.8
    endloop
  endfacet
  facet normal -0.207911 -0.978148 -0
    outer loop
      vertex 10.9059 1.10493 3.8
      vertex 10.7219 1.14405 2
      vertex 10.9059 1.10493 2
    endloop
  endfacet
  facet normal -0.866026 -0.499998 0
    outer loop
      vertex 10.2719 1.47099 2
      vertex 10.1778 1.63394 3.8
      vertex 10.1778 1.63394 2
    endloop
  endfacet
  facet normal -0.866026 -0.499998 0
    outer loop
      vertex 10.1778 1.63394 3.8
      vertex 10.2719 1.47099 2
      vertex 10.2719 1.47099 3.8
    endloop
  endfacet
  facet normal -0.587788 -0.809015 0
    outer loop
      vertex 10.3978 1.33117 2
      vertex 10.55 1.22058 3.8
      vertex 10.3978 1.33117 3.8
    endloop
  endfacet
  facet normal -0.587788 -0.809015 -0
    outer loop
      vertex 10.55 1.22058 3.8
      vertex 10.3978 1.33117 2
      vertex 10.55 1.22058 2
    endloop
  endfacet
  facet normal -0.743144 -0.669132 0
    outer loop
      vertex 10.3978 1.33117 2
      vertex 10.2719 1.47099 3.8
      vertex 10.2719 1.47099 2
    endloop
  endfacet
  facet normal -0.743144 -0.669132 0
    outer loop
      vertex 10.2719 1.47099 3.8
      vertex 10.3978 1.33117 2
      vertex 10.3978 1.33117 3.8
    endloop
  endfacet
  facet normal 0.743144 -0.669132 0
    outer loop
      vertex 11.6022 1.33117 3.8
      vertex 11.7281 1.47099 2
      vertex 11.7281 1.47099 3.8
    endloop
  endfacet
  facet normal 0.743144 -0.669132 0
    outer loop
      vertex 11.7281 1.47099 2
      vertex 11.6022 1.33117 3.8
      vertex 11.6022 1.33117 2
    endloop
  endfacet
endsolid OpenSCAD_Model
