solid OpenSCAD_Model
  facet normal 0 0 -1
    outer loop
      vertex 0 0 0
      vertex 2.39999 15 0
      vertex 3 8 0
    endloop
  endfacet
  facet normal 0 0 -1
    outer loop
      vertex 21.5 9 0
      vertex 23.6 15 0
      vertex 23 8 0
    endloop
  endfacet
  facet normal 0 0 -1
    outer loop
      vertex 23 8 0
      vertex 23.6 15 0
      vertex 26 0 0
    endloop
  endfacet
  facet normal 0 0 -1
    outer loop
      vertex 23 8 0
      vertex 26 0 0
      vertex 23 3 0
    endloop
  endfacet
  facet normal -0 0 -1
    outer loop
      vertex 23 3 0
      vertex 0 0 0
      vertex 3 3 0
    endloop
  endfacet
  facet normal 0 -0 -1
    outer loop
      vertex 23 3 0
      vertex 26 0 0
      vertex 0 0 0
    endloop
  endfacet
  facet normal 0 0 -1
    outer loop
      vertex 3 8 0
      vertex 2.39999 15 0
      vertex 4.5 9 0
    endloop
  endfacet
  facet normal -0 0 -1
    outer loop
      vertex 3 3 0
      vertex 0 0 0
      vertex 3 8 0
    endloop
  endfacet
  facet normal 0 0 1
    outer loop
      vertex 3 8 8
      vertex 2.39999 15 8
      vertex 0 0 8
    endloop
  endfacet
  facet normal 0 -0 1
    outer loop
      vertex 23 8 8
      vertex 23.6 15 8
      vertex 21.5 9 8
    endloop
  endfacet
  facet normal 0 0 1
    outer loop
      vertex 26 0 8
      vertex 23.6 15 8
      vertex 23 8 8
    endloop
  endfacet
  facet normal -0 0 1
    outer loop
      vertex 23 3 8
      vertex 26 0 8
      vertex 23 8 8
    endloop
  endfacet
  facet normal -0 0 1
    outer loop
      vertex 3 3 8
      vertex 0 0 8
      vertex 23 3 8
    endloop
  endfacet
  facet normal 0 0 1
    outer loop
      vertex 0 0 8
      vertex 26 0 8
      vertex 23 3 8
    endloop
  endfacet
  facet normal 0 0 1
    outer loop
      vertex 4.5 9 8
      vertex 2.39999 15 8
      vertex 3 8 8
    endloop
  endfacet
  facet normal 0 0 1
    outer loop
      vertex 3 8 8
      vertex 0 0 8
      vertex 3 3 8
    endloop
  endfacet
  facet normal -0.943859 0.330349 0
    outer loop
      vertex 21.5 9 0
      vertex 23.6 15 8
      vertex 23.6 15 0
    endloop
  endfacet
  facet normal -0.943859 0.330349 0
    outer loop
      vertex 21.5 9 0
      vertex 21.5 9 8
      vertex 23.6 15 8
    endloop
  endfacet
  facet normal -0.5547 -0.83205 0
    outer loop
      vertex 23 8 0
      vertex 21.5 9 8
      vertex 21.5 9 0
    endloop
  endfacet
  facet normal -0.5547 -0.83205 0
    outer loop
      vertex 23 8 0
      vertex 23 8 8
      vertex 21.5 9 8
    endloop
  endfacet
  facet normal -1 0 0
    outer loop
      vertex 23 3 0
      vertex 23 8 8
      vertex 23 8 0
    endloop
  endfacet
  facet normal -1 0 0
    outer loop
      vertex 23 3 0
      vertex 23 3 8
      vertex 23 8 8
    endloop
  endfacet
  facet normal 0 1 0
    outer loop
      vertex 3 3 0
      vertex 23 3 8
      vertex 23 3 0
    endloop
  endfacet
  facet normal 0 1 0
    outer loop
      vertex 3 3 0
      vertex 3 3 8
      vertex 23 3 8
    endloop
  endfacet
  facet normal 1 0 0
    outer loop
      vertex 3 8 0
      vertex 3 3 8
      vertex 3 3 0
    endloop
  endfacet
  facet normal 1 0 -0
    outer loop
      vertex 3 8 0
      vertex 3 8 8
      vertex 3 3 8
    endloop
  endfacet
  facet normal 0.5547 -0.83205 0
    outer loop
      vertex 4.5 9 0
      vertex 3 8 8
      vertex 3 8 0
    endloop
  endfacet
  facet normal 0.5547 -0.83205 0
    outer loop
      vertex 4.5 9 0
      vertex 4.5 9 8
      vertex 3 8 8
    endloop
  endfacet
  facet normal 0.943858 0.330351 0
    outer loop
      vertex 2.39999 15 0
      vertex 4.5 9 8
      vertex 4.5 9 0
    endloop
  endfacet
  facet normal 0.943858 0.330351 -0
    outer loop
      vertex 2.39999 15 0
      vertex 2.39999 15 8
      vertex 4.5 9 8
    endloop
  endfacet
  facet normal -0.987441 0.15799 0
    outer loop
      vertex 0 0 0
      vertex 2.39999 15 8
      vertex 2.39999 15 0
    endloop
  endfacet
  facet normal -0.987441 0.15799 0
    outer loop
      vertex 0 0 0
      vertex 0 0 8
      vertex 2.39999 15 8
    endloop
  endfacet
  facet normal 0 -1 0
    outer loop
      vertex 26 0 0
      vertex 0 0 8
      vertex 0 0 0
    endloop
  endfacet
  facet normal 0 -1 0
    outer loop
      vertex 26 0 0
      vertex 26 0 8
      vertex 0 0 8
    endloop
  endfacet
  facet normal 0.987441 0.157991 0
    outer loop
      vertex 23.6 15 0
      vertex 26 0 8
      vertex 26 0 0
    endloop
  endfacet
  facet normal 0.987441 0.157991 -0
    outer loop
      vertex 23.6 15 0
      vertex 23.6 15 8
      vertex 26 0 8
    endloop
  endfacet
endsolid OpenSCAD_Model
